<?xml version="1.0" encoding="utf-8"?>
<!-- Generator: Adobe Illustrator 21.0.0, SVG Export Plug-In . SVG Version: 6.00 Build 0)  -->
<svg version="1.1" id="Layer_1" xmlns="http://www.w3.org/2000/svg" xmlns:xlink="http://www.w3.org/1999/xlink" x="0px" y="0px"
	 viewBox="0 0 120 36" style="enable-background:new 0 0 120 36;" xml:space="preserve">
<style type="text/css">
	.st0{enable-background:new    ;}
	.st1{fill:#131391;}
</style>
<g class="st0">
	<path class="st1" d="M12.6,9.7C12.6,9.7,12.6,9.7,12.6,9.7c0.1-0.1,0.1-0.1,0.2-0.1c-0.1-0.1-0.1-0.2-0.2-0.4S12.5,9,12.4,8.9
		c0-0.1,0-0.1,0.1-0.2s0.1-0.1,0.1-0.1c0-0.3,0-0.5,0-0.7c0-0.2,0.1-0.4,0.2-0.7C12.9,7,13,6.8,13.1,6.6c0.1-0.2,0.2-0.4,0.3-0.6
		c0.1,0,0.1,0,0.2,0c0,0,0.1,0,0.1,0c0.2-0.1,0.3-0.3,0.3-0.4c0.1-0.2,0.1-0.3,0.1-0.5c0.1-0.3,0.2-0.6,0.3-0.9
		c0.1-0.3,0.3-0.6,0.4-0.9c0.2-0.3,0.3-0.5,0.5-0.7c0.2-0.2,0.4-0.4,0.6-0.5c0.1-0.1,0.3-0.3,0.5-0.4c0.2-0.1,0.5-0.2,0.7-0.3
		c0.2-0.1,0.5-0.1,0.8-0.1c0.3,0,0.5,0,0.7,0.1c0.1,0,0.1,0,0.1,0c0-0.1,0-0.1,0.1-0.1c0.5,0.1,1,0.2,1.4,0.4s0.7,0.4,1,0.7
		c0.2,0.4,0.4,0.8,0.6,1.2c0.2,0.4,0.3,0.9,0.4,1.3c0.1,0.5,0.1,0.9,0.1,1.4s-0.1,1-0.3,1.5c-0.4,0.5-0.8,1-1.3,1.3
		c-0.5,0.3-1.1,0.6-1.6,0.8s-1.2,0.4-1.8,0.5c-0.6,0.1-1.2,0.3-1.8,0.4c0,0.3,0,0.7,0,1c0,0.4,0,0.7-0.1,1.1s-0.1,0.7-0.2,1.1
		c-0.1,0.4-0.3,0.7-0.4,1c-0.2,0-0.4,0-0.6,0.1c-0.2,0.1-0.4,0.1-0.6,0.2c-0.1-0.1-0.2-0.1-0.2-0.2c-0.1-0.1-0.2-0.1-0.3-0.1
		c0-0.1,0-0.3-0.1-0.5c-0.1-0.2-0.2-0.3-0.3-0.5c-0.1-0.2-0.1-0.3-0.2-0.5c0-0.2,0-0.3,0.2-0.4c-0.1-0.1-0.1-0.2-0.1-0.4
		c0,0,0.1,0.1,0.2,0.1c0-0.2,0-0.5,0.1-0.8c0.1-0.3,0.1-0.6,0.2-0.9c0-0.3,0.1-0.6,0-0.8C12.9,10,12.8,9.9,12.6,9.7z M16.5,5.5
		c0,0.1-0.1,0.3-0.1,0.4c0,0.1-0.1,0.2-0.1,0.3c0,0.1-0.1,0.2-0.1,0.3c0,0.1-0.1,0.2-0.1,0.3c0,0.1,0.1,0.1,0.1,0.2
		c0.1,0,0.1,0.1,0.1,0.2c0.1-0.1,0.3-0.1,0.4-0.2c0.1,0,0.3-0.1,0.4-0.1c0.1,0,0.3-0.1,0.4-0.1c0.1,0,0.3-0.1,0.4-0.2
		c0.2-0.1,0.3-0.2,0.5-0.2c0.2-0.1,0.3-0.1,0.5-0.2c0.2-0.1,0.3-0.1,0.5-0.2c0.2-0.1,0.3-0.2,0.4-0.3c-0.1-0.2-0.4-0.3-0.6-0.4
		C19,5,18.7,4.9,18.4,4.9c-0.3,0-0.7,0-1,0.1C17.1,5,16.8,5.2,16.5,5.5z"/>
	<path class="st1" d="M24.4,13c-0.1,0.5-0.2,0.9-0.3,1.1c-0.1,0.2-0.2,0.5-0.4,0.8c-0.1,0-0.2,0-0.3,0.1c-0.1,0.1-0.1,0.1-0.2,0.2
		c-0.1,0-0.2,0-0.2,0c0,0-0.1-0.1-0.1-0.1c0,0-0.1-0.1-0.1-0.1c0,0-0.1,0-0.2,0c0-0.1,0-0.2-0.1-0.3c0-0.1-0.1-0.1-0.2-0.1
		c0-0.1,0-0.2,0-0.2c0-0.1,0-0.1,0-0.2s0-0.1,0-0.2c0-0.1,0-0.1,0-0.2c-0.1,0-0.1,0-0.1-0.1c0-0.1-0.1-0.2-0.1-0.3
		c0-0.2,0.1-0.4,0.1-0.6c0-0.2,0.1-0.4,0.1-0.5c0-0.2,0.1-0.3,0.1-0.5c0-0.2,0-0.3,0-0.5c0,0,0.1,0,0.1,0c0-0.1,0-0.1,0-0.2
		s0-0.2,0-0.3c0-0.1,0-0.2,0-0.2c0.1-0.3,0.2-0.6,0.3-1c0.1-0.3,0.1-0.7,0.2-1c0.1-0.3,0.1-0.7,0.2-1c0.1-0.3,0.1-0.6,0.2-0.9
		c0.1,0,0.2,0,0.4,0c0.1,0.1,0.2,0.1,0.3,0.2c0.3-0.2,0.5-0.5,0.7-0.9c0.2-0.3,0.4-0.7,0.6-1C25.5,4.6,25.7,4.3,26,4
		c0.3-0.3,0.6-0.4,1-0.5c0.2,0.2,0.4,0.4,0.7,0.6c0.2,0.2,0.5,0.4,0.6,0.7c0.1,0,0.2,0.1,0.2,0.2c0.1,0.1,0.1,0.1,0.2,0.2v0.2
		c0.1,0.1,0.2,0.3,0.3,0.5c0.1,0.2,0.1,0.4,0.2,0.6c0.1,0.2,0.1,0.4,0.2,0.6c0.1,0.2,0.1,0.4,0.2,0.6c0,0.1,0,0.1,0,0.2s0,0.1,0,0.1
		c0,0,0,0.1,0,0.1c0,0,0,0.1,0,0.2c0,0.5-0.2,1-0.4,1.3s-0.6,0.6-0.9,0.8c-0.4,0.2-0.8,0.4-1.2,0.5c-0.4,0.1-0.8,0.3-1.1,0.5
		c0,0,0,0.1,0.1,0.1s0,0,0,0.1c0.2,0.2,0.4,0.3,0.6,0.4s0.3,0.2,0.4,0.3c0.1,0.1,0.3,0.1,0.4,0.2c0.1,0.1,0.4,0.1,0.6,0.2
		c0.3,0.1,0.5,0.1,0.6,0.2c0.1,0,0.3,0.1,0.4,0.1s0.2,0.1,0.4,0.1c0.1,0,0.3,0,0.5,0.1c0.1,0.1,0.2,0.2,0.2,0.4
		c0.1,0.2,0.1,0.3,0.1,0.5c0,0.2,0,0.3,0,0.4c0,0.1,0,0.3-0.1,0.3c0,0,0,0.1,0.1,0c0,0,0.1,0,0.1,0c-0.1,0-0.1,0.1-0.2,0.2
		c0,0.1-0.1,0.1-0.1,0.2c0,0.1-0.1,0.1-0.1,0.2c-0.1,0.1-0.1,0.1-0.2,0.1c-0.3,0.1-0.7,0.2-1.2,0c-0.5-0.1-1.1-0.4-1.8-0.7
		c-0.4-0.2-0.7-0.3-0.9-0.4c-0.2-0.1-0.4-0.3-0.6-0.4c-0.2-0.1-0.3-0.3-0.5-0.4C24.7,13.4,24.6,13.2,24.4,13z M26.5,6.7
		c-0.1,0.2-0.2,0.4-0.4,0.5c-0.1,0.2-0.3,0.3-0.4,0.5c-0.1,0.2-0.2,0.3-0.3,0.5c-0.1,0.2-0.2,0.4-0.2,0.7c0.4,0,0.7-0.2,1.1-0.4
		s0.8-0.4,1.1-0.5c0-0.4-0.2-0.7-0.3-0.9C26.9,6.9,26.7,6.8,26.5,6.7z"/>
	<path class="st1" d="M39.3,9.4c0,0.1,0,0.3,0,0.4c0,0.1,0.1,0.3,0.1,0.4s0.1,0.3,0.1,0.4s0.1,0.3,0.1,0.4c0,0.2,0,0.4,0,0.6
		c0,0.2-0.1,0.4-0.1,0.6c-0.1,0.2-0.1,0.4-0.2,0.5c-0.1,0.2-0.2,0.3-0.3,0.3c-0.1,0.2-0.3,0.4-0.5,0.5c-0.2,0.1-0.4,0.3-0.6,0.4
		c-0.1,0.1-0.2,0.1-0.4,0.2c-0.1,0-0.3,0.1-0.4,0.1c-0.1,0.1-0.2,0.1-0.4,0.2c-0.2,0.1-0.3,0.2-0.5,0.2c-0.2,0.1-0.3,0.1-0.5,0.1
		s-0.3,0-0.4,0c-0.3,0.1-0.6,0.2-0.9,0.3c-0.3,0-0.6,0-1-0.1c-0.4,0.1-0.7,0-1-0.1c-0.3-0.1-0.6-0.3-0.8-0.5
		c-0.2-0.2-0.4-0.5-0.6-0.8c-0.2-0.3-0.3-0.6-0.4-0.9c-0.1-0.7-0.1-1.3,0.1-1.9c0.1-0.6,0.3-1.1,0.5-1.6c0.2-0.5,0.5-0.9,0.8-1.3
		c0.3-0.4,0.6-0.8,0.9-1.2c0.1,0,0.1,0,0.1,0c0,0,0.1-0.1,0.1-0.1c0-0.1,0.1-0.1,0.1-0.2c0,0,0.1-0.1,0.1-0.1
		c0.1-0.2,0.2-0.3,0.3-0.4c0.1-0.1,0.2-0.2,0.3-0.4c0.1,0,0.2-0.1,0.2-0.1c0.1,0,0.1-0.1,0.2-0.2c0.1-0.1,0.1-0.1,0.2-0.2
		c0.1-0.1,0.1-0.1,0.2-0.1l0-0.2c0.2-0.1,0.3-0.2,0.4-0.3c0.1-0.1,0.2-0.3,0.3-0.5c0.1,0,0.2,0,0.2,0c0.1,0,0.1,0,0.3,0
		c0.1-0.2,0.2-0.3,0.2-0.4s0.2-0.2,0.3-0.3c0.1,0.1,0.3,0.1,0.4,0.1c0.1,0,0.3,0.1,0.4,0.2c0,0.1,0,0.2,0.1,0.3
		c0.1,0.1,0.1,0.1,0.2,0.2c0.1,0.1,0.1,0.1,0.2,0.2c0.1,0.1,0.1,0.1,0.1,0.3c0,0,0.1,0,0.1,0c0,0,0,0,0.1,0C38,4.8,38,4.9,38,4.9
		c0,0.1,0.1,0.2,0.1,0.3c-0.1,0.1-0.1,0.2-0.1,0.4c0,0.1-0.1,0.2-0.2,0.3c0,0.1,0,0.1,0.1,0.1c0.1,0,0.1,0,0.1,0.1
		c0,0.1,0,0.2,0,0.2c0.2,0.5,0.5,1,0.7,1.5C38.8,8.4,39,8.9,39.3,9.4z M37.4,11.1c0-0.1,0.1-0.2,0.2-0.3c0.1-0.1,0.1-0.2,0.1-0.4
		c-0.1-0.1-0.1-0.2-0.1-0.2s0-0.1,0-0.3c-0.2-0.4-0.4-0.8-0.6-1.2c-0.2-0.4-0.3-0.8-0.6-1.2c0,0-0.1,0.1-0.1,0.1c-0.1,0-0.1,0-0.2,0
		c0,0.1-0.1,0.2-0.1,0.2c-0.1,0-0.1,0.1-0.2,0.1s-0.1,0-0.2-0.1c-0.1,0-0.1-0.1-0.2-0.1c-0.3,0.3-0.6,0.6-0.9,0.8
		c-0.3,0.3-0.6,0.6-0.8,0.9c0,0-0.1,0-0.1,0c0,0,0,0-0.1,0c-0.1,0.2-0.2,0.4-0.3,0.6c-0.1,0.2-0.2,0.4-0.3,0.6
		c-0.1,0.2-0.2,0.4-0.3,0.6c-0.1,0.2-0.1,0.5-0.1,0.8c0.2,0.2,0.4,0.3,0.6,0.3c0.2,0,0.5,0,0.7,0c0.2,0,0.5-0.1,0.7-0.1
		c0.2-0.1,0.5-0.1,0.7-0.1c0.4-0.1,0.8-0.3,1.1-0.5C36.7,11.5,37,11.3,37.4,11.1z"/>
	<path class="st1" d="M47.8,9.9c0,0.1,0,0.1,0,0.2c0,0,0,0.1,0,0.1s0,0.1,0,0.1c0,0.1,0,0.1,0,0.2c-0.3,0.6-0.7,1.2-1.2,1.6
		s-1,0.8-1.5,1.2s-1.1,0.6-1.7,0.9c-0.6,0.3-1.2,0.6-1.8,0.9c-0.2-0.1-0.4-0.2-0.6-0.4c-0.1-0.2-0.2-0.4-0.3-0.6
		c-0.1-0.2-0.1-0.5-0.1-0.7s0-0.6-0.1-0.8c0-0.1,0.1-0.2,0.1-0.3c0.1-0.1,0.1-0.2,0.1-0.4c0.1-0.3,0.2-0.6,0.2-0.9
		c0.1-0.3,0.1-0.6,0.2-0.9c0-0.1,0.1-0.2,0.2-0.2c0.1-0.6,0.1-1.2,0-1.8c0-0.6-0.1-1.2-0.3-1.7c0-0.1,0-0.2,0-0.3C41,6,41,6,41,5.9
		c0-0.1,0-0.1,0.1-0.1c0.1,0,0.1,0,0.2,0c0-0.2,0-0.4-0.1-0.5s-0.1-0.4-0.2-0.6c0.1-0.2,0.1-0.4,0.1-0.5c0-0.2,0.1-0.3,0.1-0.5
		c0.6,0.2,1.1,0.5,1.6,0.7c0.5,0.3,1,0.5,1.5,0.6c0.4,0.3,0.7,0.6,1.1,0.9c0.4,0.3,0.7,0.7,1.1,1c0.3,0.4,0.6,0.8,0.8,1.3
		S47.7,9.3,47.8,9.9z M44.1,10.9c0.2-0.1,0.4-0.2,0.6-0.3c0.2-0.1,0.4-0.2,0.6-0.4s0.3-0.3,0.5-0.5c0.1-0.2,0.3-0.4,0.4-0.7
		C46.1,9,46,8.8,45.9,8.7s-0.2-0.2-0.3-0.3c-0.1-0.1-0.2-0.2-0.3-0.3c-0.1-0.1-0.2-0.2-0.2-0.4c-0.1,0-0.3-0.1-0.4-0.1
		c-0.1-0.1-0.2-0.1-0.3-0.2c-0.1-0.1-0.2-0.1-0.3-0.2C44,7.1,43.9,7,43.8,7c-0.2-0.1-0.4-0.2-0.6-0.3s-0.3-0.1-0.4-0.2
		c-0.1,0-0.1,0-0.2,0.1c0.1,0.5,0.2,0.9,0.2,1.3c0.1,0.4,0.1,0.8,0.1,1.2c0,0.4,0,0.8-0.1,1.2s-0.1,0.9-0.2,1.4c0.1,0,0.2,0,0.3-0.1
		c0.1,0,0.2-0.1,0.3-0.1c0.1,0,0.2-0.1,0.3-0.1c0.1,0,0.2-0.1,0.3-0.1c0-0.1,0.1-0.1,0.1-0.2C44,11.1,44.1,11,44.1,10.9z"/>
	<path class="st1" d="M56.9,4.5c0,0.3,0.1,0.5,0.1,0.7c0.1,0.2,0.1,0.4,0.2,0.6c0.1,0.2,0.1,0.3,0.1,0.5c0,0.2,0.1,0.4,0.1,0.6
		c-0.1,0.3-0.1,0.6-0.2,0.9c0,0.3-0.1,0.5-0.1,0.8c-0.2,0.4-0.3,0.8-0.5,1.1c-0.2,0.3-0.3,0.6-0.4,0.9c-0.1,0.1-0.1,0.1-0.1,0.2
		c0,0.1-0.1,0.2-0.1,0.2c0,0,0,0.1-0.1,0.2c0,0.1-0.1,0.1-0.1,0.1l-0.3-0.1l-0.1,0.5l-0.2,0.1l-0.2,0.2c-0.2,0.4-0.4,0.7-0.6,1
		c-0.2,0.3-0.5,0.5-0.7,0.7c-0.3,0.2-0.6,0.4-0.9,0.6c-0.3,0.2-0.7,0.4-1.2,0.6c-0.2,0-0.3,0-0.5,0c-0.1,0-0.2,0-0.4,0
		c-0.2,0-0.4,0-0.7-0.1c0-0.1-0.1-0.2-0.1-0.2c-0.1,0-0.1-0.1-0.2-0.1c-0.2-0.1-0.3-0.2-0.4-0.4s-0.2-0.4-0.3-0.6
		c-0.1-0.1-0.1-0.3-0.2-0.4c-0.1-0.1-0.1-0.2-0.2-0.4l0.3-0.1l-0.3-0.4c0,0,0-0.1-0.1-0.1c0,0-0.1-0.1-0.1-0.1l0-0.3
		c0-0.8,0-1.6,0-2.3c0-0.7,0.1-1.3,0.2-1.9V7.3c0-0.3,0.1-0.5,0.1-0.7S49,6.3,49,6.1c0-0.3,0.1-0.5,0.1-0.7c0.1,0,0.2-0.1,0.3-0.2
		c0.1-0.1,0.1-0.2,0.2-0.3c0.1,0,0.2,0,0.3,0.1C50,5,50.1,5.1,50.1,5.3c0.1,0.1,0.1,0.2,0.2,0.4c0.1,0.1,0.2,0.2,0.3,0.3
		c0,0.1,0,0.2,0.1,0.3c0,0.1,0.1,0.2,0.1,0.3C50.9,6.8,51,7,51.1,7.2c0.1,0.2,0.1,0.4,0.1,0.6C51.1,8.1,51,8.4,51,8.7
		c-0.1,0.3-0.1,0.6-0.1,0.9c0,0.3,0,0.6,0,0.9c0,0.3,0.1,0.5,0.1,0.7l0.1,0.2l0.3,0c0.3-0.1,0.6-0.2,0.8-0.3s0.5-0.3,0.7-0.4
		c0.2-0.2,0.4-0.3,0.6-0.6c0.2-0.2,0.4-0.5,0.6-0.7c0.2-0.3,0.4-0.6,0.6-1c0.2-0.4,0.3-0.7,0.4-1.1c0.1-0.4,0.2-0.8,0.2-1.2
		c0.1-0.4,0.1-0.7,0.1-1.1c0.2-0.1,0.3-0.2,0.3-0.4l0-0.2c0-0.1,0-0.2,0-0.3c0.1-0.2,0.2-0.4,0.4-0.5c0.2,0.1,0.3,0.3,0.4,0.4
		C56.6,4.2,56.8,4.3,56.9,4.5z"/>
	<path class="st1" d="M63.4,14.9c-0.2,0-0.4,0-0.6,0c-0.2,0-0.5,0-0.7,0.1c-0.5,0-1.1-0.1-1.7-0.2c-0.6-0.1-1.1-0.3-1.5-0.5
		c-0.1-0.1-0.2-0.3-0.3-0.4s-0.2-0.2-0.4-0.2c-0.2-0.2-0.4-0.5-0.6-0.8c-0.2-0.3-0.3-0.7-0.4-1.1c-0.1-0.4-0.2-0.8-0.2-1.2
		c0-0.4,0-0.8,0-1.1c0.2-0.5,0.4-1,0.6-1.4c0.3-0.4,0.6-0.8,0.9-1.2c0.1-0.1,0.2-0.1,0.3-0.2C58.9,6.5,59,6.5,59,6.4
		c0.1-0.1,0.2-0.1,0.2-0.2c0.1-0.1,0.1-0.1,0.2-0.2c0.2-0.1,0.4-0.1,0.6-0.3c0.2-0.1,0.3-0.2,0.5-0.4S60.8,5.1,61,5
		c0.2-0.1,0.4-0.2,0.6-0.3c0.1-0.1,0.2-0.2,0.3-0.3s0.2-0.1,0.3-0.2c0.1-0.1,0.2-0.1,0.3-0.2c0.1-0.1,0.2-0.2,0.3-0.3
		c0.1,0.1,0.1,0.1,0.2,0.1c0.1,0,0.2-0.1,0.3-0.1c0.1,0,0.1,0,0.1,0c0,0,0.1,0.1,0.1,0.1c0,0,0.1,0.1,0.1,0.1c0,0,0,0,0.1-0.1
		c0.1,0,0.1,0,0,0.1c0,0.1,0,0.1,0,0.1c0.1,0,0.2,0,0.2,0.1c0.1,0.1,0.1,0.1,0.3,0.1c0,0.1,0.1,0.1,0,0.1s0,0.1,0,0.2
		c0.3,0.1,0.5,0.3,0.6,0.5c0.1,0.2,0.1,0.5,0,0.7c-0.1,0.3-0.2,0.5-0.4,0.7c-0.2,0.2-0.4,0.4-0.6,0.4c-0.5,0.2-0.9,0.3-1.4,0.5
		c-0.4,0.2-0.8,0.5-1.1,0.8c-0.2,0.1-0.5,0.2-0.6,0.3c-0.2,0.1-0.4,0.3-0.5,0.5c-0.2,0.2-0.3,0.4-0.5,0.5c-0.1,0.2-0.3,0.4-0.5,0.6
		c0,0.2,0,0.3-0.1,0.4c-0.1,0.1-0.1,0.2-0.2,0.3c0,0.2,0.1,0.3,0.1,0.5s0.1,0.3,0.2,0.4c0.7,0.2,1.4,0.4,2.1,0.5
		c0.8,0.1,1.5,0.1,2.3,0.1c0.1,0.1,0.2,0.2,0.3,0.3c0.1,0.1,0.2,0.2,0.3,0.3c0.1,0.1,0.1,0.2,0.2,0.4s0.1,0.3,0,0.5
		c-0.1,0.2-0.3,0.3-0.5,0.5C63.7,14.6,63.5,14.7,63.4,14.9z"/>
	<path class="st1" d="M73.8,6.1c-0.3,0-0.5,0-0.8,0.1s-0.6,0.1-0.9,0.1c-0.2,0-0.4,0.1-0.6,0.1c-0.2,0-0.4,0-0.5,0.1
		c-0.1,0.3-0.1,0.5-0.2,0.7c-0.1,0.2-0.1,0.4-0.2,0.6c-0.1,0.2-0.2,0.4-0.2,0.6c-0.1,0.2-0.1,0.4-0.2,0.7c-0.1,0.2-0.2,0.4-0.3,0.5
		s-0.1,0.4-0.2,0.6c-0.1,0.2-0.2,0.4-0.3,0.6c-0.1,0.2-0.1,0.4-0.1,0.5l-0.1,0.2c-0.1,0.1-0.1,0.1-0.1,0.2c0,0,0,0.1-0.1,0.1
		c0,0.1,0,0.3-0.1,0.4c0,0.1,0,0.1,0,0.2c0,0.1,0,0.1,0,0.1c0,0.1,0,0.2-0.1,0.2c0,0.1,0,0.1,0,0.2s0,0.1,0,0.2c0,0.1,0,0.3,0,0.3
		c0,0,0.1,0.1,0.1,0.1c0,0,0,0.1,0.1,0.1c0.1,0,0.1,0.1,0.1,0.1c0,0,0.1,0.1,0.2,0.1l0.1,0.2c0.1,0.4,0,0.6-0.1,0.8
		c-0.2,0.2-0.4,0.3-0.8,0.3h-0.2c-0.1-0.1-0.1-0.1-0.1-0.1C68,15.1,68,15,67.9,15c-0.1,0-0.1-0.1-0.1-0.1c-0.1-0.1-0.2-0.1-0.3-0.2
		l-0.1-0.1c0-0.1,0-0.2,0-0.2c-0.1-0.1-0.1-0.2-0.2-0.4s-0.1-0.3-0.1-0.4c0-0.1,0-0.2-0.1-0.3c0-0.1-0.1-0.2-0.1-0.3
		c0-0.7,0-1.3,0.2-1.8c0.1-0.5,0.3-1,0.4-1.4c0.1-0.2,0.2-0.5,0.2-0.7c0.1-0.2,0.2-0.5,0.2-0.8l0.1-0.2c0.1-0.2,0.1-0.4,0.2-0.5
		c0-0.1,0.1-0.3,0.1-0.4c0-0.1,0.1-0.2,0.1-0.2s0-0.1,0.1-0.2c-0.1,0-0.1,0-0.2,0c-0.1,0-0.1,0-0.2,0c-0.1,0-0.1,0-0.2,0
		c-0.1,0-0.1,0-0.2,0c-0.1,0-0.1,0-0.2,0C67.7,6.9,67.5,7,67.4,7h-0.2c0,0-0.1,0-0.1,0c0,0,0,0-0.1,0C67,7,66.9,7,66.9,7
		c-0.1,0-0.2,0-0.4,0h-0.2c0,0,0,0-0.1,0c0,0-0.1,0-0.1,0C66.1,7,66,7,66,7S65.8,7,65.7,6.9c-0.1-0.2-0.2-0.3-0.2-0.3l-0.1-0.2
		c0-0.1,0-0.1,0-0.2c0-0.1,0-0.1-0.1-0.2c0-0.1-0.1-0.3-0.1-0.4C65.1,5.4,65,5.2,65,5c0-0.1,0-0.2,0.1-0.2c0,0,0.1-0.1,0.1-0.1
		l0-0.3l0.2,0l0.4,0c0.3,0,0.7,0,1,0s0.7-0.1,1-0.1c0.2,0,0.4,0,0.6-0.1c0.2,0,0.4,0,0.6-0.1c0-0.1,0.1-0.2,0.1-0.3l0.2-0.1
		c0.2,0,0.3,0,0.4,0.1C69.9,3.9,70,3.9,70,4c0.2,0,0.5-0.1,0.7-0.1c0.2,0,0.5-0.1,0.7-0.1c0.3-0.1,0.7-0.1,1-0.2
		c0.4,0,0.7-0.1,1-0.1c0.1,0,0.3,0,0.4,0c0.1,0,0.3,0,0.4,0.1l0.2,0.1c0,0.1,0.1,0.1,0.1,0.2c0.1,0.1,0.1,0.1,0.2,0.2
		c0.1,0.1,0.2,0.3,0.4,0.5c0.1,0.2,0.2,0.4,0.1,0.8c-0.1,0.1-0.1,0.2-0.2,0.3l-0.1,0.2l-0.2,0c-0.1,0-0.1,0-0.2,0
		c-0.1,0-0.1,0-0.2,0.1c0,0-0.1,0-0.1,0.1c0,0-0.1,0-0.1,0c-0.1,0-0.2,0-0.2,0C73.9,6.1,73.8,6.1,73.8,6.1z"/>
	<path class="st1" d="M72.8,6.6C72.9,6.4,73,6.2,73.1,6s0.3-0.3,0.5-0.5s0.4-0.2,0.6-0.3C74.5,5.1,74.7,5,74.8,5
		c0.4-0.2,0.8-0.4,1.3-0.6c0.5-0.2,0.9-0.4,1.4-0.5c0.5-0.1,1-0.2,1.5-0.3s1,0,1.6,0.2c0,0.1,0.1,0.2,0.1,0.3
		c0.1,0.1,0.1,0.2,0.2,0.3s0.1,0.2,0.2,0.3c0.1,0.1,0.1,0.2,0.1,0.3c0.1,0.1,0.2,0.2,0.2,0.4c0.1,0.1,0.1,0.3,0,0.5
		c-0.1,0.1-0.2,0.2-0.3,0.3c-0.1,0.1-0.2,0.1-0.3,0.2c-0.4-0.1-0.8-0.1-1.1-0.1s-0.7,0.1-1,0.1c-0.1-0.1-0.2-0.2-0.3-0.2
		c-0.1,0-0.3,0-0.4,0.1c-0.1,0-0.3,0.1-0.4,0.1c-0.1,0-0.3,0.1-0.4,0c-0.1,0.1-0.2,0.2-0.4,0.2c-0.1,0-0.3,0.1-0.5,0.1
		c0,0.1,0,0.1,0,0.1c0,0,0,0.1,0,0.1c0.1,0.1,0.1,0.1,0.2,0.2c0.1,0,0.2,0.1,0.3,0.1c0.1,0,0.2,0.1,0.3,0.1c0.1,0.1,0.1,0.1,0.2,0.3
		c0.2,0,0.3,0,0.4,0.1c0.1,0.1,0.2,0.2,0.3,0.3c0.1,0.1,0.1,0.3,0.2,0.4c0,0.1,0.1,0.3,0.1,0.4c0,0.1,0.1,0.1,0.1,0.1
		c0,0,0.1,0,0.1,0.1c0,0.2,0.1,0.3,0.2,0.5C78.9,9.8,79,10,79,10.2c0,0.3,0,0.6,0,0.8c0,0.2,0,0.5-0.1,0.7c-0.2,0.4-0.4,0.9-0.6,1.2
		s-0.6,0.7-0.9,0.9c-0.3,0.3-0.7,0.5-1.1,0.7c-0.4,0.2-0.8,0.4-1.1,0.5c0,0-0.1,0-0.1,0c0,0-0.1,0,0-0.1c-0.1,0.1-0.2,0.1-0.3,0.2
		c-0.1,0-0.2,0-0.3,0c-0.1,0-0.2,0-0.3,0c-0.1,0-0.2,0-0.3,0c-0.1-0.1-0.1-0.2-0.2-0.2c-0.1-0.1-0.1-0.2-0.1-0.3
		c-0.1,0-0.1,0-0.1-0.1c0-0.1,0-0.1-0.1-0.1c0.1-0.1,0.1-0.2,0.1-0.2c0,0,0,0,0,0c0,0,0,0-0.1,0c0,0,0,0,0-0.1c0-0.1,0.1-0.2,0-0.3
		c0-0.1,0-0.3,0-0.4s0-0.3,0-0.4c0-0.1,0.1-0.2,0.2-0.3c0.3,0,0.7,0,1,0c0.3-0.1,0.6-0.2,0.9-0.3c0.3-0.1,0.5-0.3,0.8-0.5
		c0.3-0.2,0.5-0.3,0.7-0.5c0-0.1,0.1-0.2,0.1-0.3c0.1-0.1,0.1-0.1,0.2-0.2c0.1-0.1,0.1-0.1,0.2-0.2c0.1-0.1,0.1-0.2,0.1-0.3
		c0-0.1,0-0.1-0.1-0.2c0,0-0.1-0.1-0.1-0.1L77.3,10c-0.2-0.1-0.4-0.2-0.7-0.3c-0.2-0.1-0.5-0.2-0.6-0.3c-0.1,0.1-0.2,0.1-0.3,0.1
		c-0.1,0-0.2-0.1-0.4-0.1c-0.3,0-0.7-0.1-1-0.1C74,9.1,73.7,9,73.4,8.9c0-0.1,0-0.1-0.1-0.2c0,0-0.1-0.1-0.2,0
		C73,8.6,73,8.5,72.9,8.4c-0.1-0.1-0.1-0.2-0.2-0.3c0-0.1,0-0.3,0-0.4c0-0.1,0-0.2-0.1-0.3c0-0.2,0.1-0.3,0.1-0.4
		C72.8,6.9,72.8,6.8,72.8,6.6z"/>
</g>
<g>
	<g class="st0">
		<path class="st1" d="M52.6,33.4c-0.1-0.1-0.1-0.2-0.2-0.3c0-0.1-0.1-0.2-0.3-0.3c0-0.2,0-0.4-0.1-0.6c0-0.2-0.1-0.5-0.1-0.7
			c0-0.3-0.1-0.5-0.1-0.7c0-0.3,0-0.5,0-0.7c0-0.1,0.1-0.2,0.1-0.3s0.1-0.2,0.1-0.3s0.1-0.2,0.1-0.3c0-0.1,0-0.2,0-0.3
			c0.1,0,0.1-0.1,0.1-0.1c0-0.1,0.1-0.1,0.1-0.1c0.1-0.3,0.1-0.5,0.2-0.7s0.2-0.5,0.3-0.7s0.2-0.4,0.3-0.7s0.2-0.5,0.3-0.8
			c-0.2-0.2-0.3-0.4-0.4-0.6c-0.1-0.2-0.1-0.5-0.2-0.7c0-0.2-0.1-0.5-0.1-0.7s-0.1-0.5-0.1-0.7c0.1-0.2,0.3-0.4,0.4-0.5
			c0.2-0.1,0.4-0.3,0.6-0.3c0.2-0.1,0.4-0.2,0.7-0.2s0.5-0.1,0.8-0.2c0.5-0.2,0.9-0.3,1.3-0.4c0.4-0.1,0.8-0.2,1.1-0.3
			c0.4-0.1,0.7-0.1,1.1-0.2c0.4-0.1,0.9-0.1,1.4-0.2c0,0,0,0.1,0.1,0.1c0,0,0.1,0,0.1,0c0,0.1,0.1,0.1,0.2,0.1c0,0,0-0.1,0-0.1
			s0-0.1,0-0.1c0,0,0,0,0.1,0c0,0,0.1,0,0.1,0c0,0,0,0,0.1,0c0,0,0-0.1,0-0.1c0.1,0.3,0.3,0.5,0.5,0.6c0.2,0.2,0.4,0.3,0.6,0.4
			c0,0.1,0,0.2,0,0.2c0,0,0,0.1,0,0.1c0,0,0,0.1,0,0.1s0,0.1,0,0.2c-0.2,0.3-0.3,0.6-0.6,0.8c-0.2,0.2-0.4,0.3-0.7,0.4
			c-0.2,0.1-0.5,0.2-0.7,0.2c-0.3,0-0.5,0.1-0.8,0.2s-0.5,0.1-0.8,0.2c-0.3,0.1-0.5,0.2-0.8,0.4c-0.1,0-0.2-0.1-0.2,0s-0.1,0-0.2,0
			c-0.1,0-0.2,0-0.2,0.1c-0.1,0-0.2,0-0.3,0c-0.1,0.1-0.2,0.1-0.3,0.2c-0.1,0-0.2,0.1-0.3,0.1c0.1,0.1,0.1,0.3,0.1,0.4
			c0,0.1,0,0.2,0,0.3c0.4,0,0.9,0,1.4,0s1-0.1,1.5-0.1c0,0.1,0,0.1,0,0.1c0,0,0,0.1,0,0.1c0.1,0.1,0.2,0.2,0.3,0.3
			c0.1,0.1,0.2,0.2,0.3,0.3c0.1,0.1,0.2,0.2,0.3,0.3s0.2,0.1,0.3,0.1c0.1,0.1,0.1,0.2,0.1,0.4c0,0.1,0,0.3,0,0.4
			c-0.2,0.2-0.4,0.3-0.6,0.5s-0.4,0.3-0.6,0.4c-0.2,0.1-0.4,0.2-0.7,0.3c-0.2,0.1-0.5,0.1-0.8,0.1c-0.1,0-0.1,0-0.1,0
			s-0.1,0-0.1-0.1c-0.1,0.1-0.2,0.1-0.4,0.1c-0.2,0-0.3,0-0.4,0.1c-0.1-0.1-0.3-0.1-0.5-0.1c-0.2,0-0.4,0-0.5-0.1
			c-0.2,0.3-0.4,0.6-0.5,1c-0.2,0.3-0.3,0.7-0.4,1.1c0.4,0.1,0.8,0.1,1,0.1c0.3,0,0.5,0,0.8-0.1c0.2,0,0.5-0.1,0.8-0.1
			c0.3,0,0.6,0,1,0c0.3-0.1,0.5-0.2,0.9-0.3c0.3-0.1,0.6-0.1,0.9-0.2c0.1,0,0.2,0.1,0.3,0.2s0.1,0.2,0.2,0.3s0.1,0.2,0.2,0.3
			c0.1,0.1,0.2,0.1,0.3,0.1c0.1,0.1,0.1,0.1,0.1,0.2c0,0.1,0,0.2,0,0.2c0,0.1,0,0.1,0.1,0.2c0,0,0.1,0.1,0.2,0
			c-0.2,0.5-0.4,0.8-0.6,1.1c-0.2,0.3-0.5,0.5-0.8,0.6c-0.3,0.1-0.6,0.2-1,0.3c-0.4,0.1-0.8,0.1-1.2,0.2c-0.1,0-0.2,0-0.3,0
			c-0.1,0-0.2,0-0.2,0c-0.3,0.1-0.6,0.1-1,0.2s-0.8,0.1-1.2,0.1s-0.8-0.1-1.1-0.2S52.9,33.7,52.6,33.4z"/>
		<path class="st1" d="M62.8,32.7c-0.1-0.1-0.1-0.3-0.2-0.4c-0.1-0.1-0.1-0.2-0.2-0.3c-0.1-0.3-0.2-0.6-0.3-0.8
			C62,31,62,30.7,61.9,30.4c0-0.2,0.1-0.6,0.2-1c0.1-0.5,0.2-1,0.3-1.6c0.1-0.6,0.2-1.2,0.3-1.8s0.2-1.1,0.4-1.5
			c0.1-0.4,0.2-0.8,0.4-1.2s0.3-0.8,0.5-1.2c0.2-0.4,0.3-0.7,0.5-0.9s0.4-0.4,0.6-0.5c0.1,0.1,0.1,0.2,0.2,0.2
			c0.1,0.1,0.1,0.1,0.2,0.1c0.2,0.3,0.3,0.5,0.5,0.7c0.2,0.2,0.4,0.4,0.6,0.6c-0.1,0.4-0.2,0.8-0.3,1.2c-0.1,0.4-0.2,0.9-0.4,1.3
			c-0.1,0.5-0.3,0.9-0.4,1.3c-0.1,0.4-0.2,0.8-0.3,1.1c-0.1,0.2-0.1,0.5-0.2,0.8c-0.1,0.3-0.1,0.6-0.2,1c-0.1,0.4-0.1,0.8-0.2,1.2
			c0.1,0,0.3-0.1,0.5-0.3c0.2-0.1,0.3-0.3,0.5-0.5c0.2-0.2,0.4-0.4,0.5-0.6c0.2-0.3,0.4-0.5,0.6-0.8c0.2-0.2,0.3-0.5,0.5-0.7
			s0.3-0.5,0.4-0.8c0.1-0.3,0.3-0.7,0.5-1.1c0.2-0.4,0.4-0.7,0.6-1.1c0.2-0.4,0.4-0.8,0.6-1.1c0.2-0.4,0.4-0.7,0.6-1
			c0.2-0.3,0.4-0.5,0.5-0.7c0.1,0.1,0.2,0.3,0.4,0.4s0.3,0.3,0.5,0.3c0.1,0.1,0.1,0.3,0.2,0.4c0.1,0.1,0.1,0.2,0.2,0.3
			c0.1,0.1,0.2,0.3,0.2,0.4s0.1,0.2,0.2,0.4c0,0.1,0,0.2-0.1,0.4s-0.1,0.3-0.1,0.5c0,0.2-0.1,0.4-0.1,0.6c0,0.2-0.1,0.4-0.1,0.6
			c-0.1,0.5-0.2,1-0.2,1.2c-0.1,0.3-0.1,0.5-0.1,0.7c0,0.2,0,0.3,0,0.4c0,0.1,0,0.3,0,0.5c0,0.1,0,0.3,0,0.4c0,0.1,0,0.3,0.1,0.4
			c0,0.1,0.1,0.3,0.1,0.4l0.7-0.7c0.2-0.2,0.4-0.4,0.6-0.8c0.2-0.3,0.4-0.7,0.5-1.1s0.4-0.9,0.5-1.4c0.2-0.5,0.3-1,0.5-1.6
			c0.1-0.4,0.2-0.8,0.4-1.2c0.1-0.4,0.3-0.7,0.4-1.1c0.1-0.3,0.3-0.7,0.4-0.9c0.1-0.3,0.3-0.5,0.4-0.7c0.3,0.2,0.5,0.4,0.7,0.6
			s0.4,0.4,0.5,0.7c0.1,0.3,0.3,0.5,0.4,0.9s0.1,0.7,0.2,1.1c-0.2,0.5-0.4,1-0.6,1.6s-0.4,1.1-0.6,1.6c-0.2,0.7-0.5,1.4-0.8,2.1
			s-0.5,1.4-0.9,2c-0.3,0.6-0.7,1.2-1.1,1.7c-0.4,0.5-0.8,1-1.4,1.3c-0.1,0-0.3-0.1-0.4-0.1c-0.1,0-0.2,0-0.3,0.1
			c-0.1,0-0.1,0.1-0.2,0.1c-0.4-0.2-0.8-0.6-1-1c-0.3-0.5-0.5-1-0.7-1.5c0-0.1-0.1-0.2-0.1-0.2c0-0.1-0.1-0.2-0.1-0.2l-0.3-0.6
			l-0.2-0.3l-0.2,0.2l-0.3,0.3L68.7,31c-0.3,0.4-0.6,0.7-1,1s-0.7,0.6-1,0.9c-0.4,0.3-0.7,0.5-1.1,0.7c-0.4,0.2-0.8,0.3-1.3,0.3
			c-0.1,0-0.2-0.1-0.2-0.1c-0.1,0-0.1-0.1-0.2-0.1c-0.2-0.1-0.4-0.3-0.6-0.4C63.1,33.2,63,33,62.8,32.7z"/>
		<path class="st1" d="M78.2,25c0-0.2,0-0.3-0.1-0.3c0.1-0.2,0.1-0.4,0.2-0.6c0-0.2,0.1-0.4,0.1-0.6c0-0.2,0-0.3,0.1-0.5
			s0.1-0.3,0.1-0.4c0.2,0,0.3-0.1,0.4-0.3c0.1-0.1,0.2-0.2,0.2-0.3c0.2,0,0.3,0,0.4,0.1c0.1,0.1,0.1,0.2,0.2,0.4
			c0.1,0.1,0.1,0.3,0.2,0.4s0.2,0.3,0.4,0.4c0,0.1,0.1,0.3,0.1,0.4c0,0.1,0.1,0.3,0.1,0.4c0.1,0.3,0.2,0.5,0.3,0.8
			c0.1,0.3,0.1,0.5,0.1,0.8c-0.1,0.3-0.2,0.6-0.3,1s-0.1,0.7-0.1,1.1c0,0.4,0,0.7,0,1.1c0,0.3,0.1,0.6,0.2,0.9l0.1,0.3l0.3,0
			c0.4-0.1,0.7-0.2,1-0.4c0.3-0.1,0.6-0.3,0.8-0.5c0.3-0.2,0.5-0.4,0.7-0.7c0.2-0.2,0.5-0.5,0.7-0.9c0.2-0.3,0.5-0.7,0.7-1.2
			c0.2-0.4,0.4-0.9,0.5-1.3c0.1-0.5,0.2-0.9,0.3-1.4c0.1-0.5,0.1-0.9,0.1-1.3c0.2-0.1,0.3-0.3,0.3-0.5l0-0.2c0-0.1,0-0.1,0-0.2
			c0-0.1,0-0.1,0-0.2c0.1-0.3,0.3-0.5,0.5-0.6c0.2,0.1,0.4,0.3,0.5,0.5s0.3,0.3,0.4,0.5c0,0.3,0.1,0.6,0.1,0.8
			c0.1,0.2,0.1,0.5,0.2,0.7c0.1,0.2,0.1,0.4,0.2,0.6c0.1,0.2,0.1,0.4,0.1,0.7c-0.1,0.4-0.2,0.7-0.2,1s-0.1,0.7-0.1,1l0,0.2
			c-0.2,0.4-0.4,0.8-0.5,1.2c-0.2,0.4-0.3,0.7-0.4,1c-0.1,0.1-0.1,0.2-0.2,0.3c0,0.1-0.1,0.2-0.1,0.3c0,0,0,0.1-0.1,0.2
			c0,0.1-0.1,0.1-0.1,0.2l-0.4-0.2L86.1,30l-0.2,0.1l-0.2,0.3c-0.2,0.5-0.5,0.9-0.7,1.2s-0.6,0.6-0.9,0.9c-0.3,0.3-0.7,0.5-1.1,0.7
			c-0.4,0.2-0.9,0.5-1.4,0.7c-0.2,0-0.4-0.1-0.5-0.1s-0.3,0-0.4,0c-0.1,0-0.3,0-0.4,0c-0.1,0-0.3,0-0.5-0.1c0-0.1-0.1-0.2-0.2-0.2
			c-0.1,0-0.1-0.1-0.2-0.1c-0.2-0.1-0.4-0.3-0.5-0.5c-0.1-0.2-0.2-0.5-0.3-0.7c-0.1-0.1-0.1-0.3-0.2-0.4c-0.1-0.1-0.1-0.3-0.2-0.4
			l0.3-0.1l-0.4-0.5c0,0-0.1-0.1-0.1-0.1S78,30.5,78,30.4v-0.3c0-1-0.1-1.9-0.1-2.8C77.9,26.5,78,25.7,78.2,25L78.2,25z"/>
	</g>
</g>
<g class="st0">
	<path class="st1" d="M32.1,22.3c0,0.1-0.1,0.2-0.1,0.3c-0.1,0.1-0.1,0.3-0.2,0.5c-0.1,0.2-0.1,0.4-0.2,0.6
		c-0.1,0.2-0.1,0.4-0.2,0.6s-0.1,0.4-0.1,0.5c0,0.1-0.1,0.2-0.1,0.3c0,0.1,0,0.1-0.1,0.2c0,0.1,0,0.2-0.1,0.3c0.5-0.2,1-0.3,1.5-0.5
		c0.5-0.1,1-0.2,1.5-0.2c0.1,0,0.2,0,0.3,0s0.3,0,0.4,0.1c0.1,0,0.2,0.1,0.3,0.2c0.1,0.1,0.1,0.2,0.1,0.3c0,0,0,0,0,0.1
		c0,0.1,0,0.1,0,0.2s-0.1,0.1-0.1,0.2c0,0.1-0.1,0.1-0.2,0.2c-0.1,0-0.1,0-0.1,0c0,0-0.1,0-0.1,0c-0.3,0-0.7,0-1,0.1
		c-0.3,0.1-0.7,0.1-1,0.3c-0.3,0.1-0.7,0.2-1,0.4c-0.3,0.1-0.7,0.3-1,0.5L30,30.6c0,0.1,0,0.2-0.1,0.2c-0.1,0.1-0.1,0.1-0.2,0.1
		h-0.2c-0.2,0-0.3-0.1-0.4-0.2c-0.1-0.2-0.1-0.4-0.1-0.6c0-0.2,0-0.4,0-0.7c0-0.2,0.1-0.5,0.1-0.7s0.1-0.4,0.1-0.6
		c0-0.2,0-0.3,0-0.4c-0.1-0.1-0.1-0.2-0.2-0.3c-0.1-0.1-0.1-0.2-0.1-0.4c0-0.2,0.1-0.4,0.2-0.5s0.2-0.3,0.4-0.4c0,0,0,0,0.1-0.1
		c0,0,0-0.1,0.1-0.1c0,0,0-0.1,0-0.1c0-0.1,0-0.1,0-0.1l0.3-1.1c0.1-0.4,0.2-0.8,0.3-1.1c0.1-0.3,0.2-0.6,0.2-0.9s0.1-0.5,0.2-0.7
		c0.1-0.2,0.1-0.4,0.2-0.6c0-0.1,0-0.2,0.1-0.3c0-0.1,0.1-0.2,0.2-0.3c0.1-0.1,0.1-0.2,0.2-0.3c0.1-0.1,0.2-0.1,0.3-0.1
		c0.2,0,0.3,0,0.4,0.1c0.1,0,0.1,0.1,0.1,0.1l0.1,0.2c0.1,0,0.2,0,0.3-0.1s0.3-0.1,0.4-0.1c0.1,0,0.3-0.1,0.4-0.1
		c0.1,0,0.2-0.1,0.3-0.1c0.3-0.1,0.6-0.2,0.8-0.2c0.3-0.1,0.5-0.1,0.7-0.2c0.2,0,0.4-0.1,0.7-0.1c0.2,0,0.4,0,0.6,0
		c0.1,0,0.2,0,0.3,0c0.1,0,0.2,0,0.2,0.1c0.1,0,0.1,0.1,0.1,0.1c0,0.1,0.1,0.1,0.1,0.2c0,0,0,0.1,0,0.2c0,0.1,0,0.1-0.1,0.2
		c0,0.1-0.1,0.1-0.2,0.2s-0.2,0.1-0.3,0.1c0,0-0.1,0-0.2,0c-0.1,0-0.2,0-0.3,0.1s-0.2,0-0.3,0.1c-0.1,0-0.2,0-0.3,0.1
		c-0.2,0-0.4,0.1-0.6,0.1c-0.2,0.1-0.4,0.1-0.7,0.2c-0.2,0.1-0.5,0.1-0.7,0.2c-0.2,0.1-0.5,0.2-0.7,0.2c-0.2,0.1-0.4,0.2-0.6,0.2
		C32.3,22.1,32.2,22.2,32.1,22.3z"/>
	<path class="st1" d="M36.6,27.5c0.1-0.3,0.2-0.6,0.3-1c0.1-0.3,0.3-0.7,0.6-1c0.2-0.3,0.5-0.7,0.8-1s0.7-0.6,1.1-0.9
		c0.1,0,0.2-0.1,0.3-0.1s0.3-0.1,0.4-0.1c0.2-0.2,0.4-0.3,0.7-0.3c0.4,0,0.7,0.1,0.9,0.3c0.2,0.2,0.4,0.5,0.6,0.8
		c0.1,0.1,0.1,0.2,0.1,0.3c0,0.1,0.1,0.2,0.1,0.3c0,0.1,0.1,0.2,0.1,0.4c0,0.1,0,0.3,0,0.5c0,0.4-0.1,0.8-0.2,1.2s-0.3,0.8-0.5,1.2
		c-0.2,0.4-0.5,0.8-0.8,1.1c-0.3,0.4-0.6,0.7-1,1c-0.2,0.2-0.5,0.3-0.8,0.5c-0.3,0.1-0.6,0.2-1,0.2c-0.4,0-0.7-0.1-0.9-0.2
		c-0.3-0.1-0.5-0.2-0.6-0.4s-0.3-0.4-0.4-0.7c-0.1-0.3-0.1-0.6-0.1-0.9C36.5,28.2,36.5,27.8,36.6,27.5z M37.7,27.6
		c0,0.1,0,0.2-0.1,0.3c0,0.1,0,0.2,0,0.3c0,0.2,0,0.3,0.1,0.5c0,0.1,0.1,0.3,0.2,0.4c0.1,0.1,0.2,0.2,0.3,0.2
		c0.1,0.1,0.3,0.1,0.5,0.1c0.3,0,0.7-0.1,1-0.3s0.6-0.4,0.8-0.7c0.2-0.3,0.4-0.6,0.6-0.9c0.2-0.3,0.3-0.6,0.3-0.9
		c0-0.2,0.1-0.3,0.1-0.5c0-0.2,0-0.3,0-0.4c0-0.1,0-0.3-0.1-0.4c0-0.1-0.1-0.2-0.2-0.4c0-0.1-0.1-0.2-0.1-0.3s-0.1-0.2-0.1-0.3
		c0,0.1-0.1,0.1-0.1,0.2c0,0.1-0.1,0.1-0.2,0.1c-0.1,0-0.2,0.1-0.3,0.1s-0.3,0.1-0.6,0.1c-0.2,0.1-0.3,0.1-0.5,0.3
		c-0.2,0.1-0.3,0.2-0.5,0.4s-0.3,0.3-0.4,0.5s-0.3,0.4-0.4,0.5s-0.2,0.4-0.3,0.5S37.7,27.4,37.7,27.6z"/>
	<path class="st1" d="M44.1,29.6c0.1-0.3,0.1-0.7,0.2-1.1c0.1-0.4,0.2-0.8,0.2-1.3c0.1-0.4,0.2-0.8,0.2-1.3c0.1-0.4,0.1-0.8,0.2-1.1
		c0-0.1,0-0.1,0-0.1s0-0.1,0-0.1c0-0.2,0-0.3,0-0.5s0-0.3,0.1-0.4c0-0.2,0.1-0.3,0.2-0.4c0.1-0.1,0.2-0.1,0.3-0.1
		c0.1,0,0.2,0,0.3,0.1c0.1,0.1,0.1,0.1,0.2,0.2c0,0.1,0.1,0.2,0.1,0.3c0,0.1,0,0.2,0,0.4c0,0.1,0,0.1,0,0.2c0,0.1,0,0.2,0,0.2
		c0.1-0.1,0.3-0.3,0.4-0.4c0.1-0.2,0.3-0.3,0.5-0.4s0.3-0.2,0.5-0.3s0.4-0.1,0.6-0.1c0.1,0,0.2,0,0.2,0c0.1,0,0.2,0,0.2,0.1
		c0.1,0,0.2,0.1,0.3,0.1c0.1,0,0.2,0.1,0.3,0.2c0.2,0.1,0.3,0.3,0.4,0.5c0.1,0.2,0.2,0.4,0.2,0.6c0,0.1,0,0.2,0,0.2
		c0,0.1-0.1,0.2-0.1,0.2s-0.1,0.1-0.2,0.2s-0.1,0.1-0.2,0.1c-0.1,0-0.2,0-0.3-0.1c-0.1,0-0.2-0.1-0.3-0.2c0,0-0.1-0.1-0.1-0.1
		c0-0.1-0.1-0.1-0.1-0.2c0-0.1-0.1-0.1-0.1-0.2s0-0.1-0.1-0.1c0,0,0,0-0.1,0c0,0-0.1,0-0.1,0c-0.2,0-0.5,0.1-0.7,0.2
		c-0.2,0.1-0.4,0.3-0.6,0.5s-0.4,0.4-0.5,0.6c-0.2,0.2-0.3,0.4-0.4,0.6c-0.1,0.4-0.2,0.8-0.3,1.3c-0.1,0.5-0.2,0.9-0.3,1.4v0.2
		c0,0.1,0,0.3,0,0.5c0,0.2,0,0.3-0.1,0.4c-0.1,0.1-0.1,0.1-0.2,0.2s-0.2,0.1-0.3,0.1c-0.2,0-0.3-0.1-0.4-0.2
		C44.1,30.2,44,30,44,29.8C44,29.7,44,29.6,44.1,29.6z"/>
</g>
</svg>
